# xmcd
#
# Track frame offsets: 
#        150
#        18565
#        38453
#        58234
#        73359
#        91171
#        110191
#        130367
#        147379
#        166842
#        189772
#        212138
#
# Disc length: 3050 seconds
#
# Revision: 0
# Processed by: cddbd v1.5.2PL0 Copyright (c) Steve Scherf et al.
# Submitted via: ExactAudioCopyFreeDBPlugin 1.0
#
DISCID=b00be80c
DTITLE=Rihanna - Loud (Deluxe Edition)
DYEAR=2010
DGENRE=R&B
TTITLE0=S&M
TTITLE1=What's My Name? Feat. Drake
TTITLE2=Cheers (Drink To That)
TTITLE3=Fading
TTITLE4=Only Girl (In The World)
TTITLE5=California King Bed
TTITLE6=Man Down
TTITLE7=Raining Men Feat. Nicki Minaj
TTITLE8=Complicated
TTITLE9=Skin
TTITLE10=Love The Way You Lie (Part II) Feat. Eminem
TTITLE11=Who's That Chick (Doritos Night)
EXTD=
EXTT0=
EXTT1=
EXTT2=
EXTT3=
EXTT4=
EXTT5=
EXTT6=
EXTT7=
EXTT8=
EXTT9=
EXTT10=
EXTT11=
PLAYORDER=
